# xmcd
#
# Track frame offsets:
# 150
# 21372
# 40830
# 62862
# 82147
# 102075
# 123040
# 140995
# 159627
# 188567
# 210945
# 229687
#
# Disc length: 3400 seconds
#
#
# Revision: 3
# Processed by: cddbd v1.5.2PL0 Copyright (c) Steve Scherf et al.
# Submitted via: FreeRIP 2.96 
#
DISCID=9f0d460c
DTITLE=Love Collection - Volume I
DYEAR=1900
DGENRE=Soul
TTITLE0=Enchantment - Don't Fight The Feeling
TTITLE1=Isley Jasper Isley - Caravan Of Love
TTITLE2=Earth, Wind and Fire - Devotion
TTITLE3=Emotions - Don't Ask My Neighbords
TTITLE4=Mnhattans - Kiss And Say Goodbye
TTITLE5=Billy Paul - Me And Mrs. Jones
TTITLE6=Gregory Abbott - Shake You Down
TTITLE7=Marvin Gaye - Sexual Healing
TTITLE8=The Isley Brothers - Let Me Down Easy
TTITLE9=Earth, Wind and Fire - Reasons
TTITLE10=Manhattans - It Feels So Good To Be Loved So Bad
TTITLE11=The Isley Brothers - For The Love Of You (Part 1 and 2)
EXTD=
EXTT0=
EXTT1=
EXTT2=
EXTT3=
EXTT4=
EXTT5=
EXTT6=
EXTT7=
EXTT8=
EXTT9=
EXTT10=
EXTT11=
PLAYORDER=
